<svg xmlns="http://www.w3.org/2000/svg" width="25" height="24" viewBox="0 0 25 24" fill="none">
  <g clip-path="url(#clip0_67_985)">
    <path d="M20.8574 1V4H23.8574V6H20.8574V9H18.8574V6H15.8574V4H18.8574V1H20.8574ZM12.8574 13C13.9574 13 14.8574 12.1 14.8574 11C14.8574 9.9 13.9574 9 12.8574 9C11.7574 9 10.8574 9.9 10.8574 11C10.8574 12.1 11.7574 13 12.8574 13ZM14.8574 3.25V7H17.8574V10H20.7774C20.8274 10.39 20.8574 10.79 20.8574 11.2C20.8574 14.52 18.1874 18.45 12.8574 23C7.52742 18.45 4.85742 14.52 4.85742 11.2C4.85742 6.22 8.65742 3 12.8574 3C13.5374 3 14.2074 3.08 14.8574 3.25Z" fill="#323232"/>
  </g>
  <defs>
    <clipPath id="clip0_67_985">
      <rect width="24" height="24" fill="white" transform="translate(0.857422)"/>
    </clipPath>
  </defs>
</svg>