<svg xmlns="http://www.w3.org/2000/svg" width="25" height="12" viewBox="0 0 25 12" fill="none">
  <path d="M12.1426 6.75C13.7726 6.75 15.2126 7.14 16.3826 7.65C17.4626 8.13 18.1426 9.21 18.1426 10.38V12H6.14258V10.39C6.14258 9.21 6.82258 8.13 7.90258 7.66C9.07258 7.14 10.5126 6.75 12.1426 6.75ZM4.14258 7C5.24258 7 6.14258 6.1 6.14258 5C6.14258 3.9 5.24258 3 4.14258 3C3.04258 3 2.14258 3.9 2.14258 5C2.14258 6.1 3.04258 7 4.14258 7ZM5.27258 8.1C4.90258 8.04 4.53258 8 4.14258 8C3.15258 8 2.21258 8.21 1.36258 8.58C0.622578 8.9 0.142578 9.62 0.142578 10.43V12H4.64258V10.39C4.64258 9.56 4.87258 8.78 5.27258 8.1ZM20.1426 7C21.2426 7 22.1426 6.1 22.1426 5C22.1426 3.9 21.2426 3 20.1426 3C19.0426 3 18.1426 3.9 18.1426 5C18.1426 6.1 19.0426 7 20.1426 7ZM24.1426 10.43C24.1426 9.62 23.6626 8.9 22.9226 8.58C22.0726 8.21 21.1326 8 20.1426 8C19.7526 8 19.3826 8.04 19.0126 8.1C19.4126 8.78 19.6426 9.56 19.6426 10.39V12H24.1426V10.43ZM12.1426 0C13.8026 0 15.1426 1.34 15.1426 3C15.1426 4.66 13.8026 6 12.1426 6C10.4826 6 9.14258 4.66 9.14258 3C9.14258 1.34 10.4826 0 12.1426 0Z" fill="#323232"/>
</svg>