<svg xmlns="http://www.w3.org/2000/svg" width="20" height="20" viewBox="0 0 20 20" fill="none">
<path d="M17.3087 16.2753C17.3087 16.5753 17.242 16.8837 17.1003 17.1837C16.9587 17.4837 16.7753 17.767 16.5337 18.0337C16.1253 18.4837 15.6753 18.8087 15.167 19.017C14.667 19.2253 14.1253 19.3337 13.542 19.3337C12.692 19.3337 11.7837 19.1337 10.8253 18.7253C9.86699 18.317 8.90866 17.767 7.95866 17.0753C7.00033 16.3753 6.09199 15.6003 5.22533 14.742C4.36699 13.8753 3.59199 12.967 2.90033 12.017C2.21699 11.067 1.66699 10.117 1.26699 9.17533C0.866992 8.22533 0.666992 7.31699 0.666992 6.45033C0.666992 5.88366 0.766992 5.34199 0.966992 4.84199C1.16699 4.33366 1.48366 3.86699 1.92533 3.45033C2.45866 2.92533 3.04199 2.66699 3.65866 2.66699C3.89199 2.66699 4.12533 2.71699 4.33366 2.81699C4.55033 2.91699 4.74199 3.06699 4.89199 3.28366L6.82533 6.00866C6.97533 6.21699 7.08366 6.40866 7.15866 6.59199C7.23366 6.76699 7.27533 6.94199 7.27533 7.10033C7.27533 7.30033 7.21699 7.50033 7.10033 7.69199C6.99199 7.88366 6.83366 8.08366 6.63366 8.28366L6.00033 8.94199C5.90866 9.03366 5.86699 9.14199 5.86699 9.27533C5.86699 9.34199 5.87533 9.40033 5.89199 9.46699C5.91699 9.53366 5.94199 9.58366 5.95866 9.63366C6.10866 9.90866 6.36699 10.267 6.73366 10.7003C7.10866 11.1337 7.50866 11.5753 7.94199 12.017C8.39199 12.4587 8.82533 12.867 9.26699 13.242C9.70033 13.6087 10.0587 13.8587 10.342 14.0087C10.3837 14.0253 10.4337 14.0503 10.492 14.0753C10.5587 14.1003 10.6253 14.1087 10.7003 14.1087C10.842 14.1087 10.9503 14.0587 11.042 13.967L11.6753 13.342C11.8837 13.1337 12.0837 12.9753 12.2753 12.8753C12.467 12.7587 12.6587 12.7003 12.867 12.7003C13.0253 12.7003 13.192 12.7337 13.3753 12.8087C13.5587 12.8837 13.7503 12.992 13.9587 13.1337L16.717 15.092C16.9337 15.242 17.0837 15.417 17.1753 15.6253C17.2587 15.8337 17.3087 16.042 17.3087 16.2753Z" stroke="#9A9EA6" stroke-width="1.2" stroke-miterlimit="10"/>
<path d="M14.4167 8.50065C14.4167 8.00065 14.025 7.23398 13.4417 6.60898C12.9083 6.03398 12.2 5.58398 11.5 5.58398" stroke="#9A9EA6" stroke-width="1.2" stroke-linecap="round" stroke-linejoin="round"/>
<path d="M17.3333 8.50033C17.3333 5.27533 14.725 2.66699 11.5 2.66699" stroke="#9A9EA6" stroke-width="1.2" stroke-linecap="round" stroke-linejoin="round"/>
</svg>