<svg xmlns="http://www.w3.org/2000/svg" width="20" height="20" viewBox="0 0 20 20" fill="none">
  <path d="M6.04199 5.83366H13.9587V4.16699C13.9587 2.50033 13.3337 1.66699 11.4587 1.66699H8.54199C6.66699 1.66699 6.04199 2.50033 6.04199 4.16699V5.83366Z" stroke="#9A9EA6" stroke-width="1.2" stroke-miterlimit="10" stroke-linecap="round" stroke-linejoin="round"/>
  <path d="M13.3337 12.5V15.8333C13.3337 17.5 12.5003 18.3333 10.8337 18.3333H9.16699C7.50033 18.3333 6.66699 17.5 6.66699 15.8333V12.5H13.3337Z" stroke="#9A9EA6" stroke-width="1.2" stroke-miterlimit="10" stroke-linecap="round" stroke-linejoin="round"/>
  <path d="M17.5 8.33301V12.4997C17.5 14.1663 16.6667 14.9997 15 14.9997H13.3333V12.4997H6.66667V14.9997H5C3.33333 14.9997 2.5 14.1663 2.5 12.4997V8.33301C2.5 6.66634 3.33333 5.83301 5 5.83301H15C16.6667 5.83301 17.5 6.66634 17.5 8.33301Z" stroke="#9A9EA6" stroke-width="1.2" stroke-miterlimit="10" stroke-linecap="round" stroke-linejoin="round"/>
  <path d="M14.1663 12.5H13.158H5.83301" stroke="#9A9EA6" stroke-width="1.2" stroke-miterlimit="10" stroke-linecap="round" stroke-linejoin="round"/>
  <path d="M5.83301 9.16699H8.33301" stroke="#9A9EA6" stroke-width="1.2" stroke-miterlimit="10" stroke-linecap="round" stroke-linejoin="round"/>
</svg>