<svg width="23" height="23" viewBox="0 0 23 23" fill="none" xmlns="http://www.w3.org/2000/svg">
<g id="icn bx-star">
<path id="Vector" d="M5.99772 13.1374L4.63104 19.0554C4.58872 19.2346 4.60143 19.4224 4.6675 19.5943C4.73357 19.7662 4.84993 19.9141 5.00139 20.0188C5.15286 20.1235 5.33237 20.1801 5.5165 20.1812C5.70062 20.1823 5.8808 20.1278 6.03349 20.0249L11.0278 16.6954L16.0222 20.0249C16.1784 20.1287 16.3627 20.1821 16.5502 20.178C16.7377 20.1739 16.9194 20.1124 17.0709 20.0019C17.2225 19.8915 17.3365 19.7372 17.3978 19.56C17.4591 19.3827 17.4646 19.191 17.4136 19.0105L15.736 13.1402L19.8966 9.39603C20.0298 9.27605 20.125 9.11963 20.1703 8.94614C20.2156 8.77264 20.209 8.58967 20.1515 8.41986C20.0939 8.25004 19.9878 8.10083 19.8463 7.99067C19.7048 7.88051 19.5342 7.81423 19.3554 7.80004L14.1263 7.38362L11.8634 2.3746C11.7913 2.21331 11.674 2.07635 11.5257 1.98025C11.3774 1.88415 11.2045 1.83301 11.0278 1.83301C10.8511 1.83301 10.6782 1.88415 10.53 1.98025C10.3817 2.07635 10.2644 2.21331 10.1922 2.3746L7.92942 7.38362L2.70027 7.79913C2.52457 7.81305 2.35661 7.87729 2.21647 7.98416C2.07634 8.09104 1.96996 8.23602 1.91006 8.40178C1.85017 8.56753 1.83929 8.74703 1.87874 8.9188C1.91819 9.09057 2.00629 9.24734 2.1325 9.37035L5.99772 13.1374ZM8.61459 9.16947C8.77831 9.15658 8.93555 9.09987 9.06982 9.0053C9.20409 8.91073 9.31044 8.78179 9.37773 8.63198L11.0278 4.98047L12.6779 8.63198C12.7452 8.78179 12.8516 8.91073 12.9859 9.0053C13.1201 9.09987 13.2774 9.15658 13.4411 9.16947L17.0843 9.4584L14.0841 12.1587C13.8236 12.3936 13.7199 12.7549 13.8153 13.0925L14.9646 17.1146L11.5378 14.8297C11.3874 14.7288 11.2104 14.6749 11.0292 14.6749C10.8481 14.6749 10.671 14.7288 10.5206 14.8297L6.93972 17.2173L7.90282 13.0475C7.93813 12.8942 7.93339 12.7343 7.88906 12.5833C7.84472 12.4323 7.76228 12.2953 7.64966 12.1853L4.8631 9.46849L8.61459 9.16947Z" fill="#E77C40"/>
</g>
</svg>
