<svg width="23" height="23" viewBox="0 0 23 23" fill="none" xmlns="http://www.w3.org/2000/svg">
<g id="icn bxs-star">
<path id="Vector" d="M21.0969 8.41964C21.0392 8.24983 20.9331 8.10061 20.7916 7.99043C20.6501 7.88024 20.4795 7.81389 20.3007 7.79959L15.0716 7.38408L12.8087 2.37506C12.7367 2.21373 12.6195 2.07671 12.4712 1.98052C12.323 1.88434 12.1501 1.8331 11.9734 1.83301C11.7968 1.83291 11.6238 1.88395 11.4755 1.97998C11.3272 2.076 11.2098 2.2129 11.1375 2.37415L8.87473 7.38408L3.64558 7.79959C3.46989 7.8135 3.30193 7.87774 3.16179 7.98462C3.02165 8.0915 2.91527 8.23648 2.85537 8.40224C2.79548 8.56799 2.7846 8.74749 2.82405 8.91926C2.8635 9.09103 2.9516 9.2478 3.07781 9.37081L6.94212 13.1379L5.57544 19.0559C5.53394 19.235 5.54724 19.4225 5.61361 19.594C5.67999 19.7655 5.79637 19.913 5.94765 20.0175C6.09894 20.1221 6.27815 20.1787 6.46202 20.1801C6.6459 20.1815 6.82595 20.1276 6.97881 20.0254L11.9731 16.6958L16.9675 20.0254C17.1237 20.1291 17.308 20.1825 17.4955 20.1784C17.683 20.1743 17.8647 20.1129 18.0162 20.0024C18.1678 19.8919 18.2819 19.7377 18.3431 19.5604C18.4044 19.3832 18.4099 19.1914 18.3589 19.0109L16.6813 13.1406L20.8419 9.39649C21.1143 9.15067 21.2143 8.76727 21.0969 8.41964Z" fill="#E77C40"/>
</g>
</svg>
